G75*
%MOIN*%
%OFA0B0*%
%FSLAX26Y26*%
%IPPOS*%
%LPD*%
%AMOC8*
5,1,8,0,0,1.08239X$1,22.5*
%
%ADD10C,0.074000*%
%ADD11C,0.060000*%
%ADD12C,0.051496*%
%ADD13C,0.076000*%
%ADD14C,0.030000*%
%ADD15C,0.016000*%
D10*
X00800000Y00750000D03*
X00900000Y00750000D03*
X01200000Y00750000D03*
X01300000Y00750000D03*
X01400000Y00750000D03*
D11*
X01150000Y00230000D02*
X01150000Y00170000D01*
X01050000Y00170000D02*
X01050000Y00230000D01*
X00950000Y00230000D02*
X00950000Y00170000D01*
D12*
X00550000Y00175748D02*
X00550000Y00124252D01*
X00450000Y00124252D02*
X00450000Y00175748D01*
X00350000Y00175748D02*
X00350000Y00124252D01*
X00250000Y00124252D02*
X00250000Y00175748D01*
X00250000Y00624252D02*
X00250000Y00675748D01*
X00350000Y00675748D02*
X00350000Y00624252D01*
X00450000Y00624252D02*
X00450000Y00675748D01*
X00550000Y00675748D02*
X00550000Y00624252D01*
D13*
X00850000Y00500000D03*
X01250000Y00500000D03*
D14*
X01400000Y00650000D01*
X01400000Y00750000D01*
X01300000Y00750000D02*
X01300000Y00775000D01*
X01200000Y00875000D01*
X00550000Y00875000D01*
X00325000Y00650000D01*
X00350000Y00650000D01*
X00325000Y00650000D02*
X00250000Y00650000D01*
X00250000Y00150000D01*
X00350000Y00150000D01*
X00450000Y00150000D02*
X00550000Y00150000D01*
X00900000Y00150000D01*
X00950000Y00200000D01*
X00950000Y00400000D01*
X00850000Y00500000D01*
X00700000Y00650000D01*
X00800000Y00750000D01*
X00800000Y00775000D01*
X00850000Y00825000D01*
X00950000Y00825000D01*
X01025000Y00750000D01*
X01200000Y00750000D01*
X01150000Y00500000D02*
X00900000Y00750000D01*
X00700000Y00650000D02*
X00550000Y00650000D01*
X00450000Y00650000D01*
X01150000Y00500000D02*
X01150000Y00200000D01*
X01050000Y00200000D02*
X01050000Y00175000D01*
X01125000Y00100000D01*
X01175000Y00100000D01*
X01250000Y00175000D01*
X01250000Y00500000D01*
D15*
X00048000Y00951606D02*
X00048000Y00048000D01*
X01539008Y00048000D01*
X01539008Y00951606D01*
X00048000Y00951606D01*
X00048000Y00943913D02*
X01539008Y00943913D01*
X01539008Y00927914D02*
X00048000Y00927914D01*
X00048000Y00911916D02*
X00526759Y00911916D01*
X00525642Y00911453D02*
X00343685Y00729496D01*
X00339309Y00729496D01*
X00319554Y00721313D01*
X00304435Y00706194D01*
X00300000Y00695487D01*
X00295565Y00706194D01*
X00280446Y00721313D01*
X00260691Y00729496D01*
X00239309Y00729496D01*
X00219554Y00721313D01*
X00204435Y00706194D01*
X00196252Y00686439D01*
X00196252Y00613561D01*
X00204435Y00593806D01*
X00207000Y00591241D01*
X00207000Y00208759D01*
X00204435Y00206194D01*
X00196252Y00186439D01*
X00196252Y00113561D01*
X00204435Y00093806D01*
X00219554Y00078687D01*
X00239309Y00070504D01*
X00260691Y00070504D01*
X00280446Y00078687D01*
X00295565Y00093806D01*
X00300000Y00104512D01*
X00304435Y00093806D01*
X00319554Y00078687D01*
X00339309Y00070504D01*
X00360691Y00070504D01*
X00380446Y00078687D01*
X00395565Y00093806D01*
X00403748Y00113561D01*
X00403748Y00186439D01*
X00395565Y00206194D01*
X00380446Y00221313D01*
X00360691Y00229496D01*
X00339309Y00229496D01*
X00319554Y00221313D01*
X00304435Y00206194D01*
X00300000Y00195487D01*
X00295565Y00206194D01*
X00293000Y00208759D01*
X00293000Y00591241D01*
X00295565Y00593806D01*
X00300000Y00604512D01*
X00304435Y00593806D01*
X00319554Y00578687D01*
X00339309Y00570504D01*
X00360691Y00570504D01*
X00380446Y00578687D01*
X00395565Y00593806D01*
X00403748Y00613561D01*
X00403748Y00667937D01*
X00406252Y00670441D01*
X00406252Y00650000D01*
X00449999Y00650000D01*
X00449999Y00649999D01*
X00450000Y00649999D01*
X00450000Y00580504D01*
X00453443Y00580504D01*
X00460244Y00581581D01*
X00466793Y00583709D01*
X00472929Y00586835D01*
X00478500Y00590883D01*
X00483369Y00595752D01*
X00487417Y00601323D01*
X00490543Y00607459D01*
X00492671Y00614008D01*
X00493748Y00620809D01*
X00493748Y00649999D01*
X00450001Y00649999D01*
X00450001Y00650000D01*
X00493748Y00650000D01*
X00493748Y00679191D01*
X00492671Y00685992D01*
X00490543Y00692541D01*
X00487417Y00698677D01*
X00483369Y00704248D01*
X00478500Y00709117D01*
X00472929Y00713165D01*
X00466793Y00716291D01*
X00460244Y00718419D01*
X00455052Y00719241D01*
X00567811Y00832000D01*
X01182189Y00832000D01*
X01210104Y00804085D01*
X01204329Y00805000D01*
X01202000Y00805000D01*
X01202000Y00752001D01*
X01198000Y00752001D01*
X01198000Y00805000D01*
X01195671Y00805000D01*
X01187121Y00803646D01*
X01178887Y00800970D01*
X01171174Y00797040D01*
X01164170Y00791952D01*
X01158048Y00785830D01*
X01152960Y00778826D01*
X01149030Y00771113D01*
X01146354Y00762879D01*
X01145000Y00754329D01*
X01145000Y00752000D01*
X01197999Y00752000D01*
X01197999Y00748000D01*
X01145000Y00748000D01*
X01145000Y00745671D01*
X01146354Y00737121D01*
X01149030Y00728887D01*
X01152960Y00721174D01*
X01158048Y00714170D01*
X01164170Y00708048D01*
X01171174Y00702960D01*
X01178887Y00699030D01*
X01187121Y00696354D01*
X01195671Y00695000D01*
X01198000Y00695000D01*
X01198000Y00747999D01*
X01202000Y00747999D01*
X01202000Y00695000D01*
X01204329Y00695000D01*
X01212879Y00696354D01*
X01221113Y00699030D01*
X01228826Y00702960D01*
X01235830Y00708048D01*
X01241952Y00714170D01*
X01243566Y00716392D01*
X01244896Y00713180D01*
X01263180Y00694896D01*
X01287071Y00685000D01*
X01312929Y00685000D01*
X01336820Y00694896D01*
X01350000Y00708076D01*
X01357000Y00701076D01*
X01357000Y00667811D01*
X01255189Y00566000D01*
X01236872Y00566000D01*
X01212614Y00555952D01*
X01194048Y00537386D01*
X01187552Y00521704D01*
X01186453Y00524358D01*
X00965000Y00745811D01*
X00965000Y00762929D01*
X00955104Y00786820D01*
X00936820Y00805104D01*
X00912929Y00815000D01*
X00887071Y00815000D01*
X00863180Y00805104D01*
X00844896Y00786820D01*
X00843566Y00783608D01*
X00841952Y00785830D01*
X00835830Y00791952D01*
X00828826Y00797040D01*
X00821113Y00800970D01*
X00812879Y00803646D01*
X00804329Y00805000D01*
X00802000Y00805000D01*
X00802000Y00752001D01*
X00798000Y00752001D01*
X00798000Y00805000D01*
X00795671Y00805000D01*
X00787121Y00803646D01*
X00778887Y00800970D01*
X00771174Y00797040D01*
X00764170Y00791952D01*
X00758048Y00785830D01*
X00752960Y00778826D01*
X00749030Y00771113D01*
X00746354Y00762879D01*
X00745000Y00754329D01*
X00745000Y00752000D01*
X00797999Y00752000D01*
X00797999Y00748000D01*
X00745000Y00748000D01*
X00745000Y00745671D01*
X00746354Y00737121D01*
X00749030Y00728887D01*
X00752960Y00721174D01*
X00758048Y00714170D01*
X00764170Y00708048D01*
X00771174Y00702960D01*
X00778887Y00699030D01*
X00787121Y00696354D01*
X00795671Y00695000D01*
X00798000Y00695000D01*
X00798000Y00747999D01*
X00802000Y00747999D01*
X00802000Y00695000D01*
X00804329Y00695000D01*
X00812879Y00696354D01*
X00821113Y00699030D01*
X00828826Y00702960D01*
X00835830Y00708048D01*
X00841952Y00714170D01*
X00843566Y00716392D01*
X00844896Y00713180D01*
X00863180Y00694896D01*
X00887071Y00685000D01*
X00904189Y00685000D01*
X01107000Y00482189D01*
X01107000Y00269024D01*
X01100830Y00262854D01*
X01100000Y00260850D01*
X01099170Y00262854D01*
X01082854Y00279170D01*
X01061537Y00288000D01*
X01038463Y00288000D01*
X01017146Y00279170D01*
X01000830Y00262854D01*
X00994646Y00247925D01*
X00994483Y00248426D01*
X00991053Y00255157D01*
X00986612Y00261270D01*
X00981270Y00266612D01*
X00975157Y00271053D01*
X00968426Y00274483D01*
X00961240Y00276818D01*
X00953778Y00278000D01*
X00952000Y00278000D01*
X00952000Y00202001D01*
X00948000Y00202001D01*
X00948000Y00278000D01*
X00946222Y00278000D01*
X00938760Y00276818D01*
X00931574Y00274483D01*
X00924843Y00271053D01*
X00918730Y00266612D01*
X00913388Y00261270D01*
X00908947Y00255157D01*
X00905517Y00248426D01*
X00903182Y00241240D01*
X00902000Y00233778D01*
X00902000Y00202000D01*
X00947999Y00202000D01*
X00947999Y00198000D01*
X00902000Y00198000D01*
X00902000Y00166222D01*
X00903182Y00158760D01*
X00905517Y00151574D01*
X00908947Y00144843D01*
X00913388Y00138730D01*
X00918730Y00133388D01*
X00924843Y00128947D01*
X00931574Y00125517D01*
X00938760Y00123182D01*
X00946222Y00122000D01*
X00948000Y00122000D01*
X00948000Y00197999D01*
X00952000Y00197999D01*
X00952000Y00122000D01*
X00953778Y00122000D01*
X00961240Y00123182D01*
X00968426Y00125517D01*
X00975157Y00128947D01*
X00981270Y00133388D01*
X00986612Y00138730D01*
X00991053Y00144843D01*
X00994483Y00151574D01*
X00994646Y00152075D01*
X01000830Y00137146D01*
X01017146Y00120830D01*
X01038463Y00112000D01*
X01052189Y00112000D01*
X01088546Y00075642D01*
X01100642Y00063546D01*
X01116447Y00057000D01*
X01183553Y00057000D01*
X01199358Y00063546D01*
X01274358Y00138546D01*
X01286453Y00150642D01*
X01293000Y00166447D01*
X01293000Y00449662D01*
X01305952Y00462614D01*
X01316000Y00486872D01*
X01316000Y00505189D01*
X01436453Y00625642D01*
X01443000Y00641447D01*
X01443000Y00701076D01*
X01455104Y00713180D01*
X01465000Y00737071D01*
X01465000Y00762929D01*
X01455104Y00786820D01*
X01436820Y00805104D01*
X01412929Y00815000D01*
X01387071Y00815000D01*
X01363180Y00805104D01*
X01350000Y00791924D01*
X01336820Y00805104D01*
X01326384Y00809427D01*
X01236453Y00899358D01*
X01224358Y00911453D01*
X01208553Y00918000D01*
X00541447Y00918000D01*
X00525642Y00911453D01*
X00510106Y00895917D02*
X00048000Y00895917D01*
X00048000Y00879919D02*
X00494108Y00879919D01*
X00478109Y00863920D02*
X00048000Y00863920D01*
X00048000Y00847922D02*
X00462111Y00847922D01*
X00446112Y00831923D02*
X00048000Y00831923D01*
X00048000Y00815925D02*
X00430114Y00815925D01*
X00414115Y00799926D02*
X00048000Y00799926D01*
X00048000Y00783928D02*
X00398117Y00783928D01*
X00382118Y00767929D02*
X00048000Y00767929D01*
X00048000Y00751931D02*
X00366119Y00751931D01*
X00350121Y00735932D02*
X00048000Y00735932D01*
X00048000Y00719934D02*
X00218174Y00719934D01*
X00203499Y00703935D02*
X00048000Y00703935D01*
X00048000Y00687937D02*
X00196872Y00687937D01*
X00196252Y00671938D02*
X00048000Y00671938D01*
X00048000Y00655939D02*
X00196252Y00655939D01*
X00196252Y00639941D02*
X00048000Y00639941D01*
X00048000Y00623942D02*
X00196252Y00623942D01*
X00198578Y00607944D02*
X00048000Y00607944D01*
X00048000Y00591945D02*
X00206295Y00591945D01*
X00207000Y00575947D02*
X00048000Y00575947D01*
X00048000Y00559948D02*
X00207000Y00559948D01*
X00207000Y00543950D02*
X00048000Y00543950D01*
X00048000Y00527951D02*
X00207000Y00527951D01*
X00207000Y00511953D02*
X00048000Y00511953D01*
X00048000Y00495954D02*
X00207000Y00495954D01*
X00207000Y00479956D02*
X00048000Y00479956D01*
X00048000Y00463957D02*
X00207000Y00463957D01*
X00207000Y00447959D02*
X00048000Y00447959D01*
X00048000Y00431960D02*
X00207000Y00431960D01*
X00207000Y00415962D02*
X00048000Y00415962D01*
X00048000Y00399963D02*
X00207000Y00399963D01*
X00207000Y00383965D02*
X00048000Y00383965D01*
X00048000Y00367966D02*
X00207000Y00367966D01*
X00207000Y00351968D02*
X00048000Y00351968D01*
X00048000Y00335969D02*
X00207000Y00335969D01*
X00207000Y00319970D02*
X00048000Y00319970D01*
X00048000Y00303972D02*
X00207000Y00303972D01*
X00207000Y00287973D02*
X00048000Y00287973D01*
X00048000Y00271975D02*
X00207000Y00271975D01*
X00207000Y00255976D02*
X00048000Y00255976D01*
X00048000Y00239978D02*
X00207000Y00239978D01*
X00207000Y00223979D02*
X00048000Y00223979D01*
X00048000Y00207981D02*
X00206222Y00207981D01*
X00198548Y00191982D02*
X00048000Y00191982D01*
X00048000Y00175984D02*
X00196252Y00175984D01*
X00196252Y00159985D02*
X00048000Y00159985D01*
X00048000Y00143987D02*
X00196252Y00143987D01*
X00196252Y00127988D02*
X00048000Y00127988D01*
X00048000Y00111990D02*
X00196903Y00111990D01*
X00203529Y00095991D02*
X00048000Y00095991D01*
X00048000Y00079993D02*
X00218248Y00079993D01*
X00281752Y00079993D02*
X00318248Y00079993D01*
X00303529Y00095991D02*
X00296470Y00095991D01*
X00381752Y00079993D02*
X01084196Y00079993D01*
X01068198Y00095991D02*
X00583543Y00095991D01*
X00583369Y00095752D02*
X00587417Y00101323D01*
X00590543Y00107459D01*
X00592671Y00114008D01*
X00593748Y00120809D01*
X00593748Y00149999D01*
X00550001Y00149999D01*
X00550001Y00150000D01*
X00593748Y00150000D01*
X00593748Y00179191D01*
X00592671Y00185992D01*
X00590543Y00192541D01*
X00587417Y00198677D01*
X00583369Y00204248D01*
X00578500Y00209117D01*
X00572929Y00213165D01*
X00566793Y00216291D01*
X00560244Y00218419D01*
X00553443Y00219496D01*
X00550000Y00219496D01*
X00550000Y00150001D01*
X00549999Y00150001D01*
X00549999Y00219496D01*
X00546557Y00219496D01*
X00539756Y00218419D01*
X00533207Y00216291D01*
X00527071Y00213165D01*
X00521500Y00209117D01*
X00516631Y00204248D01*
X00512583Y00198677D01*
X00509457Y00192541D01*
X00507329Y00185992D01*
X00506252Y00179191D01*
X00506252Y00150000D01*
X00549999Y00150000D01*
X00549999Y00149999D01*
X00550000Y00149999D01*
X00550000Y00080504D01*
X00553443Y00080504D01*
X00560244Y00081581D01*
X00566793Y00083709D01*
X00572929Y00086835D01*
X00578500Y00090883D01*
X00583369Y00095752D01*
X00592015Y00111990D02*
X01052199Y00111990D01*
X01009987Y00127988D02*
X00973276Y00127988D01*
X00952000Y00127988D02*
X00948000Y00127988D01*
X00948000Y00143987D02*
X00952000Y00143987D01*
X00952000Y00159985D02*
X00948000Y00159985D01*
X00948000Y00175984D02*
X00952000Y00175984D01*
X00952000Y00191982D02*
X00948000Y00191982D01*
X00948000Y00207981D02*
X00952000Y00207981D01*
X00952000Y00223979D02*
X00948000Y00223979D01*
X00948000Y00239978D02*
X00952000Y00239978D01*
X00952000Y00255976D02*
X00948000Y00255976D01*
X00948000Y00271975D02*
X00952000Y00271975D01*
X00973348Y00271975D02*
X01009951Y00271975D01*
X00997981Y00255976D02*
X00990458Y00255976D01*
X01038399Y00287973D02*
X00293000Y00287973D01*
X00293000Y00271975D02*
X00926652Y00271975D01*
X00909542Y00255976D02*
X00293000Y00255976D01*
X00293000Y00239978D02*
X00902982Y00239978D01*
X00902000Y00223979D02*
X00374009Y00223979D01*
X00393778Y00207981D02*
X00420364Y00207981D01*
X00421500Y00209117D02*
X00416631Y00204248D01*
X00412583Y00198677D01*
X00409457Y00192541D01*
X00407329Y00185992D01*
X00406252Y00179191D01*
X00406252Y00150000D01*
X00449999Y00150000D01*
X00449999Y00149999D01*
X00450000Y00149999D01*
X00450000Y00080504D01*
X00453443Y00080504D01*
X00460244Y00081581D01*
X00466793Y00083709D01*
X00472929Y00086835D01*
X00478500Y00090883D01*
X00483369Y00095752D01*
X00487417Y00101323D01*
X00490543Y00107459D01*
X00492671Y00114008D01*
X00493748Y00120809D01*
X00493748Y00149999D01*
X00450001Y00149999D01*
X00450001Y00150000D01*
X00493748Y00150000D01*
X00493748Y00179191D01*
X00492671Y00185992D01*
X00490543Y00192541D01*
X00487417Y00198677D01*
X00483369Y00204248D01*
X00478500Y00209117D01*
X00472929Y00213165D01*
X00466793Y00216291D01*
X00460244Y00218419D01*
X00453443Y00219496D01*
X00450000Y00219496D01*
X00450000Y00150001D01*
X00449999Y00150001D01*
X00449999Y00219496D01*
X00446557Y00219496D01*
X00439756Y00218419D01*
X00433207Y00216291D01*
X00427071Y00213165D01*
X00421500Y00209117D01*
X00409275Y00191982D02*
X00401452Y00191982D01*
X00403748Y00175984D02*
X00406252Y00175984D01*
X00406252Y00159985D02*
X00403748Y00159985D01*
X00406252Y00149999D02*
X00406252Y00120809D01*
X00407329Y00114008D01*
X00409457Y00107459D01*
X00412583Y00101323D01*
X00416631Y00095752D01*
X00421500Y00090883D01*
X00427071Y00086835D01*
X00433207Y00083709D01*
X00439756Y00081581D01*
X00446557Y00080504D01*
X00449999Y00080504D01*
X00449999Y00149999D01*
X00406252Y00149999D01*
X00406252Y00143987D02*
X00403748Y00143987D01*
X00403748Y00127988D02*
X00406252Y00127988D01*
X00407985Y00111990D02*
X00403097Y00111990D01*
X00396470Y00095991D02*
X00416457Y00095991D01*
X00449999Y00095991D02*
X00450000Y00095991D01*
X00449999Y00111990D02*
X00450000Y00111990D01*
X00449999Y00127988D02*
X00450000Y00127988D01*
X00449999Y00143987D02*
X00450000Y00143987D01*
X00449999Y00159985D02*
X00450000Y00159985D01*
X00449999Y00175984D02*
X00450000Y00175984D01*
X00449999Y00191982D02*
X00450000Y00191982D01*
X00449999Y00207981D02*
X00450000Y00207981D01*
X00479636Y00207981D02*
X00520364Y00207981D01*
X00509275Y00191982D02*
X00490725Y00191982D01*
X00493748Y00175984D02*
X00506252Y00175984D01*
X00506252Y00159985D02*
X00493748Y00159985D01*
X00506252Y00149999D02*
X00506252Y00120809D01*
X00507329Y00114008D01*
X00509457Y00107459D01*
X00512583Y00101323D01*
X00516631Y00095752D01*
X00521500Y00090883D01*
X00527071Y00086835D01*
X00533207Y00083709D01*
X00539756Y00081581D01*
X00546557Y00080504D01*
X00549999Y00080504D01*
X00549999Y00149999D01*
X00506252Y00149999D01*
X00506252Y00143987D02*
X00493748Y00143987D01*
X00493748Y00127988D02*
X00506252Y00127988D01*
X00507985Y00111990D02*
X00492015Y00111990D01*
X00483543Y00095991D02*
X00516457Y00095991D01*
X00549999Y00095991D02*
X00550000Y00095991D01*
X00549999Y00111990D02*
X00550000Y00111990D01*
X00549999Y00127988D02*
X00550000Y00127988D01*
X00549999Y00143987D02*
X00550000Y00143987D01*
X00549999Y00159985D02*
X00550000Y00159985D01*
X00549999Y00175984D02*
X00550000Y00175984D01*
X00549999Y00191982D02*
X00550000Y00191982D01*
X00549999Y00207981D02*
X00550000Y00207981D01*
X00579636Y00207981D02*
X00902000Y00207981D01*
X00902000Y00191982D02*
X00590725Y00191982D01*
X00593748Y00175984D02*
X00902000Y00175984D01*
X00902988Y00159985D02*
X00593748Y00159985D01*
X00593748Y00143987D02*
X00909568Y00143987D01*
X00926724Y00127988D02*
X00593748Y00127988D01*
X00325991Y00223979D02*
X00293000Y00223979D01*
X00293778Y00207981D02*
X00306222Y00207981D01*
X00293000Y00303972D02*
X01107000Y00303972D01*
X01107000Y00319970D02*
X00293000Y00319970D01*
X00293000Y00335969D02*
X01107000Y00335969D01*
X01107000Y00351968D02*
X00293000Y00351968D01*
X00293000Y00367966D02*
X01107000Y00367966D01*
X01107000Y00383965D02*
X00293000Y00383965D01*
X00293000Y00399963D02*
X01107000Y00399963D01*
X01107000Y00415962D02*
X00293000Y00415962D01*
X00293000Y00431960D02*
X01107000Y00431960D01*
X01107000Y00447959D02*
X00871053Y00447959D01*
X00871496Y00448103D02*
X00879350Y00452104D01*
X00886481Y00457286D01*
X00892714Y00463518D01*
X00897895Y00470649D01*
X00901897Y00478503D01*
X00904621Y00486887D01*
X00906000Y00495593D01*
X00906000Y00497000D01*
X00853001Y00497000D01*
X00853001Y00503000D01*
X00906000Y00503000D01*
X00906000Y00504407D01*
X00904621Y00513113D01*
X00901897Y00521496D01*
X00897895Y00529350D01*
X00892714Y00536481D01*
X00886481Y00542714D01*
X00879350Y00547895D01*
X00871496Y00551897D01*
X00863113Y00554621D01*
X00854407Y00556000D01*
X00853000Y00556000D01*
X00853000Y00503001D01*
X00847000Y00503001D01*
X00847000Y00556000D01*
X00845593Y00556000D01*
X00836887Y00554621D01*
X00828503Y00551897D01*
X00820649Y00547895D01*
X00813518Y00542714D01*
X00807286Y00536481D01*
X00802104Y00529350D01*
X00798103Y00521496D01*
X00795379Y00513113D01*
X00794000Y00504407D01*
X00794000Y00503000D01*
X00846999Y00503000D01*
X00846999Y00497000D01*
X00794000Y00497000D01*
X00794000Y00495593D01*
X00795379Y00486887D01*
X00798103Y00478503D01*
X00802104Y00470649D01*
X00807286Y00463518D01*
X00813518Y00457286D01*
X00820649Y00452104D01*
X00828503Y00448103D01*
X00836887Y00445379D01*
X00845593Y00444000D01*
X00847000Y00444000D01*
X00847000Y00496999D01*
X00853000Y00496999D01*
X00853000Y00444000D01*
X00854407Y00444000D01*
X00863113Y00445379D01*
X00871496Y00448103D01*
X00853000Y00447959D02*
X00847000Y00447959D01*
X00828947Y00447959D02*
X00293000Y00447959D01*
X00293000Y00463957D02*
X00806967Y00463957D01*
X00797631Y00479956D02*
X00293000Y00479956D01*
X00293000Y00495954D02*
X00794000Y00495954D01*
X00795195Y00511953D02*
X00293000Y00511953D01*
X00293000Y00527951D02*
X00801392Y00527951D01*
X00815219Y00543950D02*
X00293000Y00543950D01*
X00293000Y00559948D02*
X01029240Y00559948D01*
X01045239Y00543950D02*
X00884781Y00543950D01*
X00898608Y00527951D02*
X01061237Y00527951D01*
X01077236Y00511953D02*
X00904805Y00511953D01*
X00906000Y00495954D02*
X01093234Y00495954D01*
X01107000Y00479956D02*
X00902369Y00479956D01*
X00893033Y00463957D02*
X01107000Y00463957D01*
X01182860Y00527951D02*
X01190140Y00527951D01*
X01200612Y00543950D02*
X01166861Y00543950D01*
X01150863Y00559948D02*
X01222262Y00559948D01*
X01265136Y00575947D02*
X01134864Y00575947D01*
X01118866Y00591945D02*
X01281134Y00591945D01*
X01297133Y00607944D02*
X01102867Y00607944D01*
X01086869Y00623942D02*
X01313131Y00623942D01*
X01329130Y00639941D02*
X01070870Y00639941D01*
X01054872Y00655939D02*
X01345128Y00655939D01*
X01357000Y00671938D02*
X01038873Y00671938D01*
X01022875Y00687937D02*
X01279981Y00687937D01*
X01254141Y00703935D02*
X01230169Y00703935D01*
X01202000Y00703935D02*
X01198000Y00703935D01*
X01198000Y00719934D02*
X01202000Y00719934D01*
X01202000Y00735932D02*
X01198000Y00735932D01*
X01197999Y00751931D02*
X00965000Y00751931D01*
X00962929Y00767929D02*
X01147995Y00767929D01*
X01156666Y00783928D02*
X00956302Y00783928D01*
X00941998Y00799926D02*
X01176838Y00799926D01*
X01198000Y00799926D02*
X01202000Y00799926D01*
X01202000Y00783928D02*
X01198000Y00783928D01*
X01198000Y00767929D02*
X01202000Y00767929D01*
X01146741Y00735932D02*
X00974879Y00735932D01*
X00990877Y00719934D02*
X01153861Y00719934D01*
X01169831Y00703935D02*
X01006876Y00703935D01*
X00933249Y00655939D02*
X00593748Y00655939D01*
X00593748Y00650000D02*
X00593748Y00679191D01*
X00592671Y00685992D01*
X00590543Y00692541D01*
X00587417Y00698677D01*
X00583369Y00704248D01*
X00578500Y00709117D01*
X00572929Y00713165D01*
X00566793Y00716291D01*
X00560244Y00718419D01*
X00553443Y00719496D01*
X00550000Y00719496D01*
X00550000Y00650001D01*
X00549999Y00650001D01*
X00549999Y00719496D01*
X00546557Y00719496D01*
X00539756Y00718419D01*
X00533207Y00716291D01*
X00527071Y00713165D01*
X00521500Y00709117D01*
X00516631Y00704248D01*
X00512583Y00698677D01*
X00509457Y00692541D01*
X00507329Y00685992D01*
X00506252Y00679191D01*
X00506252Y00650000D01*
X00549999Y00650000D01*
X00549999Y00649999D01*
X00550000Y00649999D01*
X00550000Y00580504D01*
X00553443Y00580504D01*
X00560244Y00581581D01*
X00566793Y00583709D01*
X00572929Y00586835D01*
X00578500Y00590883D01*
X00583369Y00595752D01*
X00587417Y00601323D01*
X00590543Y00607459D01*
X00592671Y00614008D01*
X00593748Y00620809D01*
X00593748Y00649999D01*
X00550001Y00649999D01*
X00550001Y00650000D01*
X00593748Y00650000D01*
X00593748Y00639941D02*
X00949248Y00639941D01*
X00965246Y00623942D02*
X00593748Y00623942D01*
X00590700Y00607944D02*
X00981245Y00607944D01*
X00997243Y00591945D02*
X00579563Y00591945D01*
X00550000Y00591945D02*
X00549999Y00591945D01*
X00549999Y00580504D02*
X00549999Y00649999D01*
X00506252Y00649999D01*
X00506252Y00620809D01*
X00507329Y00614008D01*
X00509457Y00607459D01*
X00512583Y00601323D01*
X00516631Y00595752D01*
X00521500Y00590883D01*
X00527071Y00586835D01*
X00533207Y00583709D01*
X00539756Y00581581D01*
X00546557Y00580504D01*
X00549999Y00580504D01*
X00520437Y00591945D02*
X00479563Y00591945D01*
X00490700Y00607944D02*
X00509299Y00607944D01*
X00506252Y00623942D02*
X00493748Y00623942D01*
X00493748Y00639941D02*
X00506252Y00639941D01*
X00506252Y00655939D02*
X00493748Y00655939D01*
X00493748Y00671938D02*
X00506252Y00671938D01*
X00507961Y00687937D02*
X00492039Y00687937D01*
X00483596Y00703935D02*
X00516404Y00703935D01*
X00549999Y00703935D02*
X00550000Y00703935D01*
X00549999Y00687937D02*
X00550000Y00687937D01*
X00549999Y00671938D02*
X00550000Y00671938D01*
X00549999Y00655939D02*
X00550000Y00655939D01*
X00549999Y00639941D02*
X00550000Y00639941D01*
X00549999Y00623942D02*
X00550000Y00623942D01*
X00549999Y00607944D02*
X00550000Y00607944D01*
X00593748Y00671938D02*
X00917251Y00671938D01*
X00879981Y00687937D02*
X00592039Y00687937D01*
X00583596Y00703935D02*
X00769831Y00703935D01*
X00798000Y00703935D02*
X00802000Y00703935D01*
X00830169Y00703935D02*
X00854141Y00703935D01*
X00802000Y00719934D02*
X00798000Y00719934D01*
X00798000Y00735932D02*
X00802000Y00735932D01*
X00797999Y00751931D02*
X00487742Y00751931D01*
X00503740Y00767929D02*
X00747995Y00767929D01*
X00756666Y00783928D02*
X00519739Y00783928D01*
X00535737Y00799926D02*
X00776838Y00799926D01*
X00798000Y00799926D02*
X00802000Y00799926D01*
X00802000Y00783928D02*
X00798000Y00783928D01*
X00798000Y00767929D02*
X00802000Y00767929D01*
X00843334Y00783928D02*
X00843698Y00783928D01*
X00858002Y00799926D02*
X00823162Y00799926D01*
X00746741Y00735932D02*
X00471743Y00735932D01*
X00455745Y00719934D02*
X00753861Y00719934D01*
X00567734Y00831923D02*
X01182266Y00831923D01*
X01198264Y00815925D02*
X00551736Y00815925D01*
X00318174Y00719934D02*
X00281826Y00719934D01*
X00296501Y00703935D02*
X00303499Y00703935D01*
X00403748Y00655939D02*
X00406252Y00655939D01*
X00406252Y00649999D02*
X00406252Y00620809D01*
X00407329Y00614008D01*
X00409457Y00607459D01*
X00412583Y00601323D01*
X00416631Y00595752D01*
X00421500Y00590883D01*
X00427071Y00586835D01*
X00433207Y00583709D01*
X00439756Y00581581D01*
X00446557Y00580504D01*
X00449999Y00580504D01*
X00449999Y00649999D01*
X00406252Y00649999D01*
X00406252Y00639941D02*
X00403748Y00639941D01*
X00403748Y00623942D02*
X00406252Y00623942D01*
X00409299Y00607944D02*
X00401421Y00607944D01*
X00393705Y00591945D02*
X00420437Y00591945D01*
X00449999Y00591945D02*
X00450000Y00591945D01*
X00449999Y00607944D02*
X00450000Y00607944D01*
X00449999Y00623942D02*
X00450000Y00623942D01*
X00449999Y00639941D02*
X00450000Y00639941D01*
X00373831Y00575947D02*
X01013242Y00575947D01*
X00853000Y00543950D02*
X00847000Y00543950D01*
X00847000Y00527951D02*
X00853000Y00527951D01*
X00853000Y00511953D02*
X00847000Y00511953D01*
X00847000Y00495954D02*
X00853000Y00495954D01*
X00853000Y00479956D02*
X00847000Y00479956D01*
X00847000Y00463957D02*
X00853000Y00463957D01*
X01061601Y00287973D02*
X01107000Y00287973D01*
X01107000Y00271975D02*
X01090049Y00271975D01*
X00997996Y00143987D02*
X00990431Y00143987D01*
X01100195Y00063994D02*
X00048000Y00063994D01*
X00293000Y00575947D02*
X00326168Y00575947D01*
X00306295Y00591945D02*
X00293705Y00591945D01*
X01199805Y00063994D02*
X01539008Y00063994D01*
X01539008Y00079993D02*
X01215804Y00079993D01*
X01231802Y00095991D02*
X01539008Y00095991D01*
X01539008Y00111990D02*
X01247801Y00111990D01*
X01263799Y00127988D02*
X01539008Y00127988D01*
X01539008Y00143987D02*
X01279798Y00143987D01*
X01290323Y00159985D02*
X01539008Y00159985D01*
X01539008Y00175984D02*
X01293000Y00175984D01*
X01293000Y00191982D02*
X01539008Y00191982D01*
X01539008Y00207981D02*
X01293000Y00207981D01*
X01293000Y00223979D02*
X01539008Y00223979D01*
X01539008Y00239978D02*
X01293000Y00239978D01*
X01293000Y00255976D02*
X01539008Y00255976D01*
X01539008Y00271975D02*
X01293000Y00271975D01*
X01293000Y00287973D02*
X01539008Y00287973D01*
X01539008Y00303972D02*
X01293000Y00303972D01*
X01293000Y00319970D02*
X01539008Y00319970D01*
X01539008Y00335969D02*
X01293000Y00335969D01*
X01293000Y00351968D02*
X01539008Y00351968D01*
X01539008Y00367966D02*
X01293000Y00367966D01*
X01293000Y00383965D02*
X01539008Y00383965D01*
X01539008Y00399963D02*
X01293000Y00399963D01*
X01293000Y00415962D02*
X01539008Y00415962D01*
X01539008Y00431960D02*
X01293000Y00431960D01*
X01293000Y00447959D02*
X01539008Y00447959D01*
X01539008Y00463957D02*
X01306508Y00463957D01*
X01313135Y00479956D02*
X01539008Y00479956D01*
X01539008Y00495954D02*
X01316000Y00495954D01*
X01322764Y00511953D02*
X01539008Y00511953D01*
X01539008Y00527951D02*
X01338762Y00527951D01*
X01354761Y00543950D02*
X01539008Y00543950D01*
X01539008Y00559948D02*
X01370759Y00559948D01*
X01386758Y00575947D02*
X01539008Y00575947D01*
X01539008Y00591945D02*
X01402757Y00591945D01*
X01418755Y00607944D02*
X01539008Y00607944D01*
X01539008Y00623942D02*
X01434754Y00623942D01*
X01442376Y00639941D02*
X01539008Y00639941D01*
X01539008Y00655939D02*
X01443000Y00655939D01*
X01443000Y00671938D02*
X01539008Y00671938D01*
X01539008Y00687937D02*
X01443000Y00687937D01*
X01445859Y00703935D02*
X01539008Y00703935D01*
X01539008Y00719934D02*
X01457901Y00719934D01*
X01464528Y00735932D02*
X01539008Y00735932D01*
X01539008Y00751931D02*
X01465000Y00751931D01*
X01462929Y00767929D02*
X01539008Y00767929D01*
X01539008Y00783928D02*
X01456302Y00783928D01*
X01441998Y00799926D02*
X01539008Y00799926D01*
X01539008Y00815925D02*
X01319886Y00815925D01*
X01303888Y00831923D02*
X01539008Y00831923D01*
X01539008Y00847922D02*
X01287889Y00847922D01*
X01271891Y00863920D02*
X01539008Y00863920D01*
X01539008Y00879919D02*
X01255892Y00879919D01*
X01239894Y00895917D02*
X01539008Y00895917D01*
X01539008Y00911916D02*
X01223241Y00911916D01*
X01341998Y00799926D02*
X01358002Y00799926D01*
X01354141Y00703935D02*
X01345859Y00703935D01*
X01357000Y00687937D02*
X01320019Y00687937D01*
M02*
